{"title":"Hannah and Her Sisters 1986 DVDrip English Klam","uid":5835566,"size":1054939738,"categoryP":"video","categoryS":"movies","magnet":"?xt=urn:btih:66b851ddaac2479ed778202955cb6bdfd99848a3&amp;dn=Hannah+and+Her+Sisters+1986+DVDrip+English+Klam&amp;tr=udp%3A%2F%2Ftracker.openbittorrent.com%3A80&amp;tr=udp%3A%2F%2Fopen.demonii.com%3A1337&amp;tr=udp%3A%2F%2Ftracker.coppersurfer.tk%3A6969&amp;tr=udp%3A%2F%2Fexodus.desync.com%3A6969","seeders":2,"leechers":1,"uploader":"Klambake","files":4,"time":1284716246,"description":"\n\nWith: Barbara Hershey, Mia Farrow en Michael Caine\n\nDuring a Thanksgiving Day party we make aquaintance with a numerous and problematic family. The leading characters are three sisters: Lee, the woman of Frederick, an old misanthrope painter; Holly, who dreams of becoming a writer, or an actress, or who knows who...; Hannah, famous actress, beautiful, intelligent, good mother, good wife, good sister, in short perfect, the pivot of the family. The balance begins to break up when Hannah's husband, Elliot, falls in love with Lee, who leaves Frederick. Holly goes through a deep crisis and meets Mickey, the former husband of Hannah, a hipocondriac TV producer. The affairs evolve and at the last Thanksgiving ... \n\nGeneral:\n\nComplete name                    : Hannah And Her Sisters\\Sisters.avi\nFormat                           : AVI\nFormat/Info                      : Audio Video Interleave\nFile size                        : 1 005 MiB\nDuration                         : 1h 42mn\nOverall bit rate                 : 1371 Kbps\n\nVideo:\n\nFormat                           : MPEG-4 Visual\nFormat profile                   : Simple@L3\nFormat settings, BVOP            : No\nFormat settings, QPel            : No\nFormat settings, GMC             : No warppoints\nFormat settings, Matrix          : Default (H.263)\nCodec ID                         : XVID\nCodec ID/Hint                    : XviD\nDuration                         : 1h 42mn\nBit rate                         : 1168 Kbps\nWidth                            : 720 pixels\nHeight                           : 400 pixels\nDisplay aspect ratio             : 16:9\nFrame rate                       : 25.000 fps\nColor space                      : YUV\nChroma subsampling               : 4:2:0\nBit depth                        : 8 bits\nScan type                        : Progressive\nBits/(Pixel*Frame)               : 0.162\nStream size                      : 857 MiB (85%)\nWriting library                  : XviD 1.1.2 (UTC 2006-11-01)\n\nAudio:\n\nFormat                           : AC-3\nFormat/Info                      : Audio Coding 3\nMode extension                   : CM (complete main)\nCodec ID                         : 2000\nDuration                         : 1h 42mn\nBit rate mode                    : Constant\nBit rate                         : 192 Kbps\nChannel(s)                       : 2 channels\nChannel positions                : Front: L R\nSampling rate                    : 48.0 KHz\nStream size                      : 141 MiB (14%)\nAlignment                        : Aligned on interleaves\nInterleave, duration             : 32 ms (0.80 video frame)\nInterleave, preload duration     : 32 ms\n","torrent":{"xt":"urn:btih:66b851ddaac2479ed778202955cb6bdfd99848a3","amp;dn":"Hannah+and+Her+Sisters+1986+DVDrip+English+Klam","amp;tr":["udp%3A%2F%2Ftracker.openbittorrent.com%3A80","udp%3A%2F%2Fopen.demonii.com%3A1337","udp%3A%2F%2Ftracker.coppersurfer.tk%3A6969","udp%3A%2F%2Fexodus.desync.com%3A6969"],"infoHash":"66b851ddaac2479ed778202955cb6bdfd99848a3","infoHashBuffer":{"type":"Buffer","data":[102,184,81,221,170,194,71,158,215,120,32,41,85,203,107,223,217,152,72,163]},"announce":[],"urlList":[]}}